<svg 
 xmlns="http://www.w3.org/2000/svg"
 xmlns:xlink="http://www.w3.org/1999/xlink"
 width="62px" height="89px">
<path fill-rule="evenodd"  fill="rgb(255, 255, 255)"
 d="M50.062,89.000 L50.062,77.875 L44.500,77.875 L44.500,89.000 L33.375,89.000 L33.375,11.125 L44.500,11.125 L44.500,-0.000 L50.062,-0.000 L50.062,11.125 L61.187,11.125 L61.187,89.000 L50.062,89.000 ZM44.500,22.250 L38.937,22.250 L38.937,27.812 L44.500,27.812 L44.500,22.250 ZM44.500,33.375 L38.937,33.375 L38.937,38.937 L44.500,38.937 L44.500,33.375 ZM44.500,44.500 L38.937,44.500 L38.937,50.062 L44.500,50.062 L44.500,44.500 ZM44.500,55.625 L38.937,55.625 L38.937,61.187 L44.500,61.187 L44.500,55.625 ZM44.500,66.750 L38.937,66.750 L38.937,72.312 L44.500,72.312 L44.500,66.750 ZM55.625,22.250 L50.062,22.250 L50.062,27.812 L55.625,27.812 L55.625,22.250 ZM55.625,33.375 L50.062,33.375 L50.062,38.937 L55.625,38.937 L55.625,33.375 ZM55.625,44.500 L50.062,44.500 L50.062,50.062 L55.625,50.062 L55.625,44.500 ZM55.625,55.625 L50.062,55.625 L50.062,61.187 L55.625,61.187 L55.625,55.625 ZM55.625,66.750 L50.062,66.750 L50.062,72.312 L55.625,72.312 L55.625,66.750 ZM16.687,83.437 L11.125,83.437 L11.125,89.000 L-0.000,89.000 L-0.000,33.375 L5.562,33.375 L5.562,22.250 L11.125,22.250 L11.125,33.375 L16.687,33.375 L16.687,22.250 L22.250,22.250 L22.250,33.375 L27.812,33.375 L27.812,89.000 L16.687,89.000 L16.687,83.437 ZM11.125,44.500 L5.562,44.500 L5.562,50.062 L11.125,50.062 L11.125,44.500 ZM11.125,55.625 L5.562,55.625 L5.562,61.187 L11.125,61.187 L11.125,55.625 ZM11.125,66.750 L5.562,66.750 L5.562,72.312 L11.125,72.312 L11.125,66.750 ZM22.250,44.500 L16.687,44.500 L16.687,50.062 L22.250,50.062 L22.250,44.500 ZM22.250,55.625 L16.687,55.625 L16.687,61.187 L22.250,61.187 L22.250,55.625 ZM22.250,66.750 L16.687,66.750 L16.687,72.312 L22.250,72.312 L22.250,66.750 Z"/>
</svg>