<svg 
 xmlns="http://www.w3.org/2000/svg"
 xmlns:xlink="http://www.w3.org/1999/xlink"
 width="72px" height="74px">
<path fill-rule="evenodd"  fill="rgb(245, 246, 247)"
 d="M9.233,60.745 C8.457,60.745 7.740,60.859 7.076,61.078 C6.411,61.302 5.751,61.561 5.087,61.863 C4.424,62.171 3.745,62.434 3.052,62.653 C2.359,62.873 1.657,62.986 0.935,62.986 L0.935,56.184 C1.214,56.070 1.405,56.017 1.517,56.017 C1.959,55.908 2.347,55.851 2.677,55.851 C3.067,55.851 3.482,55.741 3.924,55.518 C4.920,55.131 5.856,54.741 6.749,54.355 C7.630,53.974 8.597,53.776 9.648,53.776 C10.867,53.776 11.940,54.013 12.884,54.482 C13.825,54.952 14.847,55.298 15.957,55.518 L17.032,55.518 L17.032,39.176 L11.972,27.646 C11.861,27.422 11.793,27.242 11.762,27.102 C11.736,26.966 11.722,26.755 11.722,26.479 C11.722,25.874 11.902,25.347 12.264,24.905 C12.619,24.461 13.078,24.089 13.628,23.782 C14.183,23.479 14.749,23.216 15.332,22.992 C15.913,22.773 16.453,22.585 16.948,22.413 L16.948,12.291 L22.840,12.291 L22.840,6.979 L31.136,6.979 L31.136,0.098 L41.423,0.098 L41.423,6.979 L49.640,6.979 L49.640,12.291 L55.613,12.291 L55.613,22.330 C55.613,22.444 55.872,22.585 56.401,22.747 C56.927,22.913 57.521,23.133 58.186,23.409 C58.846,23.689 59.442,24.071 59.968,24.571 C60.495,25.071 60.758,25.676 60.758,26.396 C60.758,26.729 60.758,26.979 60.758,27.141 C60.758,27.308 60.699,27.532 60.589,27.808 L55.528,39.338 L55.528,55.518 C56.859,55.518 58.102,55.228 59.265,54.649 C60.425,54.066 61.670,53.776 62.997,53.776 C63.767,53.776 64.519,53.886 65.238,54.105 C65.955,54.329 66.648,54.565 67.311,54.811 C67.975,55.061 68.665,55.311 69.387,55.561 C70.102,55.807 70.850,55.960 71.624,56.017 L71.624,62.986 C70.907,62.986 70.200,62.873 69.510,62.653 C68.817,62.434 68.128,62.171 67.435,61.863 C66.745,61.561 66.052,61.302 65.363,61.078 C64.672,60.859 63.938,60.745 63.161,60.745 C62.335,60.745 61.556,60.868 60.839,61.118 C60.122,61.368 59.400,61.644 58.681,61.947 C57.964,62.250 57.216,62.531 56.442,62.780 C55.666,63.026 54.866,63.149 54.037,63.149 C53.206,63.149 52.434,63.026 51.714,62.780 C50.995,62.531 50.274,62.250 49.557,61.947 C48.837,61.644 48.116,61.368 47.399,61.118 C46.682,60.868 45.936,60.745 45.160,60.745 C44.384,60.745 43.636,60.859 42.919,61.078 C42.202,61.302 41.493,61.561 40.802,61.863 C40.109,62.171 39.406,62.434 38.686,62.653 C37.967,62.873 37.222,62.986 36.447,62.986 C35.616,62.986 34.840,62.873 34.123,62.653 C33.406,62.434 32.682,62.171 31.967,61.863 C31.248,61.561 30.544,61.302 29.851,61.078 C29.160,60.859 28.399,60.745 27.568,60.745 C26.739,60.745 25.965,60.868 25.246,61.118 C24.529,61.368 23.808,61.644 23.088,61.947 C22.371,62.250 21.652,62.531 20.932,62.780 C20.211,63.026 19.441,63.149 18.608,63.149 C17.779,63.149 16.994,63.026 16.247,62.780 C15.496,62.531 14.749,62.250 14.005,61.947 C13.259,61.644 12.494,61.368 11.722,61.118 C10.948,60.868 10.119,60.745 9.233,60.745 ZM9.648,71.451 C8.819,71.451 8.058,71.561 7.367,71.780 C6.676,72.000 5.981,72.267 5.293,72.569 C4.602,72.872 3.911,73.135 3.216,73.359 C2.525,73.578 1.766,73.688 0.935,73.688 L0.935,66.719 L1.021,66.469 C1.569,66.469 2.155,66.425 2.764,66.342 C3.372,66.262 3.896,66.109 4.339,65.886 C5.280,65.447 6.108,65.061 6.828,64.727 C7.547,64.399 8.376,64.232 9.314,64.232 C9.979,64.232 10.628,64.329 11.266,64.517 C11.902,64.714 12.514,64.938 13.091,65.184 C13.674,65.434 14.253,65.684 14.836,65.934 C15.413,66.179 16.036,66.359 16.702,66.469 C17.084,66.526 17.365,66.552 17.534,66.552 L18.444,66.552 C19.161,66.552 19.854,66.513 20.516,66.425 C21.183,66.342 21.845,66.167 22.509,65.886 C23.393,65.557 24.169,65.228 24.832,64.895 C25.496,64.561 26.294,64.399 27.239,64.399 C28.068,64.399 28.853,64.517 29.601,64.771 C30.351,65.017 31.079,65.280 31.800,65.557 C32.520,65.833 33.255,66.096 34.000,66.342 C34.746,66.596 35.504,66.719 36.281,66.719 C37.057,66.719 37.814,66.596 38.564,66.342 C39.311,66.096 40.044,65.833 40.761,65.557 C41.482,65.280 42.215,65.017 42.960,64.771 C43.706,64.517 44.495,64.399 45.324,64.399 C46.320,64.399 47.201,64.561 47.980,64.895 C48.754,65.228 49.609,65.583 50.552,65.973 C51.162,66.250 51.754,66.416 52.337,66.469 C52.916,66.526 53.510,66.552 54.120,66.552 L55.032,66.552 C55.251,66.552 55.418,66.539 55.528,66.513 C55.642,66.486 55.751,66.469 55.863,66.469 C57.190,66.197 58.445,65.754 59.637,65.144 C60.824,64.535 62.087,64.232 63.411,64.232 C64.409,64.232 65.293,64.451 66.067,64.895 C66.841,65.342 67.698,65.697 68.639,65.973 C69.025,66.140 69.534,66.262 70.174,66.342 C70.808,66.425 71.295,66.469 71.624,66.469 L71.624,73.605 C70.685,73.605 69.872,73.495 69.179,73.276 C68.486,73.052 67.810,72.806 67.146,72.526 C66.479,72.254 65.819,72.000 65.155,71.780 C64.490,71.561 63.714,71.451 62.830,71.451 C62.054,71.451 61.309,71.569 60.589,71.819 C59.870,72.070 59.151,72.346 58.431,72.648 C57.712,72.956 56.995,73.232 56.278,73.477 C55.554,73.732 54.784,73.855 53.951,73.855 C53.179,73.855 52.434,73.732 51.714,73.477 C50.995,73.232 50.305,72.956 49.640,72.648 C48.976,72.346 48.284,72.070 47.563,71.819 C46.846,71.569 46.098,71.451 45.324,71.451 C44.495,71.451 43.719,71.561 43.002,71.780 C42.280,72.000 41.561,72.254 40.844,72.526 C40.125,72.806 39.406,73.052 38.686,73.276 C37.967,73.495 37.222,73.605 36.447,73.605 C35.616,73.605 34.811,73.495 34.042,73.276 C33.265,73.052 32.505,72.789 31.759,72.486 C31.011,72.184 30.265,71.916 29.520,71.697 C28.774,71.478 27.985,71.368 27.154,71.368 C26.382,71.368 25.663,71.486 24.996,71.741 C24.334,71.990 23.669,72.267 23.009,72.569 C22.343,72.872 21.652,73.148 20.932,73.394 C20.211,73.644 19.466,73.771 18.694,73.771 C17.865,73.771 17.073,73.644 16.327,73.394 C15.582,73.148 14.847,72.885 14.128,72.609 C13.411,72.333 12.692,72.070 11.972,71.819 C11.253,71.569 10.481,71.451 9.648,71.451 ZM21.431,16.440 L21.431,20.427 L35.535,14.699 C35.809,14.585 36.059,14.532 36.281,14.532 C36.502,14.532 36.726,14.585 36.943,14.699 L50.305,20.255 C50.579,20.370 50.883,20.427 51.214,20.427 L51.214,16.440 L45.324,16.440 L45.324,11.383 L27.154,11.383 L27.154,16.440 L21.431,16.440 Z"/>
</svg>