<svg 
 xmlns="http://www.w3.org/2000/svg"
 xmlns:xlink="http://www.w3.org/1999/xlink"
 width="90px" height="59px">
<path fill-rule="evenodd"  fill="rgb(29, 210, 175)"
 d="M88.092,38.833 C82.343,51.161 60.549,58.318 60.549,58.317 C60.549,58.318 52.166,55.564 44.427,50.531 C39.362,52.878 35.589,54.118 35.589,54.118 C35.588,54.119 9.255,45.471 2.308,30.574 C-2.920,19.361 1.041,6.447 11.156,1.730 C19.504,-2.163 29.434,0.745 35.589,8.183 C41.743,0.745 51.673,-2.163 60.022,1.730 C64.483,3.811 67.746,7.487 69.552,11.908 C66.158,12.928 62.994,15.015 60.549,17.969 C55.456,11.814 47.238,9.407 40.329,12.629 C34.124,15.522 30.721,22.143 31.136,29.155 C31.515,23.042 34.818,17.531 40.329,14.962 C47.238,11.740 55.456,14.146 60.549,20.302 C65.642,14.146 73.861,11.740 80.769,14.962 C89.141,18.865 92.419,29.553 88.092,38.833 Z"/>
</svg>