<!-- Generated by IcoMoon.io -->
<svg version="1.1" xmlns="http://www.w3.org/2000/svg" width="5" height="16" viewBox="0 0 5 16">
<title>angle-right</title>
<path d="M5.313 8.571c0 0.071-0.036 0.152-0.089 0.205l-4.161 4.161c-0.054 0.054-0.134 0.089-0.205 0.089s-0.152-0.036-0.205-0.089l-0.446-0.446c-0.054-0.054-0.089-0.125-0.089-0.205 0-0.071 0.036-0.152 0.089-0.205l3.509-3.509-3.509-3.509c-0.054-0.054-0.089-0.134-0.089-0.205s0.036-0.152 0.089-0.205l0.446-0.446c0.054-0.054 0.134-0.089 0.205-0.089s0.152 0.036 0.205 0.089l4.161 4.161c0.054 0.054 0.089 0.134 0.089 0.205z"></path>
</svg>
