<!-- Generated by IcoMoon.io -->
<svg version="1.1" xmlns="http://www.w3.org/2000/svg" width="15" height="16" viewBox="0 0 15 16">
<title>arrow-up</title>
<path d="M14.384 8.67c0 0.304-0.125 0.589-0.33 0.804l-0.67 0.67c-0.214 0.214-0.509 0.339-0.813 0.339s-0.598-0.125-0.804-0.339l-2.625-2.616v6.286c0 0.643-0.536 1.045-1.143 1.045h-1.143c-0.607 0-1.143-0.402-1.143-1.045v-6.286l-2.625 2.616c-0.205 0.214-0.5 0.339-0.804 0.339s-0.598-0.125-0.804-0.339l-0.67-0.67c-0.214-0.214-0.339-0.5-0.339-0.804s0.125-0.598 0.339-0.813l5.813-5.813c0.205-0.214 0.5-0.33 0.804-0.33s0.598 0.116 0.813 0.33l5.813 5.813c0.205 0.214 0.33 0.509 0.33 0.813z"></path>
</svg>
