<!-- Generated by IcoMoon.io -->
<svg version="1.1" xmlns="http://www.w3.org/2000/svg" width="15" height="16" viewBox="0 0 15 16">
<title>calendar</title>
<path d="M1.143 14.857h2.571v-2.571h-2.571v2.571zM4.286 14.857h2.857v-2.571h-2.857v2.571zM1.143 11.714h2.571v-2.857h-2.571v2.857zM4.286 11.714h2.857v-2.857h-2.857v2.857zM1.143 8.286h2.571v-2.571h-2.571v2.571zM7.714 14.857h2.857v-2.571h-2.857v2.571zM4.286 8.286h2.857v-2.571h-2.857v2.571zM11.143 14.857h2.571v-2.571h-2.571v2.571zM7.714 11.714h2.857v-2.857h-2.857v2.857zM4.571 4v-2.571c0-0.152-0.134-0.286-0.286-0.286h-0.571c-0.152 0-0.286 0.134-0.286 0.286v2.571c0 0.152 0.134 0.286 0.286 0.286h0.571c0.152 0 0.286-0.134 0.286-0.286zM11.143 11.714h2.571v-2.857h-2.571v2.857zM7.714 8.286h2.857v-2.571h-2.857v2.571zM11.143 8.286h2.571v-2.571h-2.571v2.571zM11.429 4v-2.571c0-0.152-0.134-0.286-0.286-0.286h-0.571c-0.152 0-0.286 0.134-0.286 0.286v2.571c0 0.152 0.134 0.286 0.286 0.286h0.571c0.152 0 0.286-0.134 0.286-0.286zM14.857 3.429v11.429c0 0.625-0.518 1.143-1.143 1.143h-12.571c-0.625 0-1.143-0.518-1.143-1.143v-11.429c0-0.625 0.518-1.143 1.143-1.143h1.143v-0.857c0-0.786 0.643-1.429 1.429-1.429h0.571c0.786 0 1.429 0.643 1.429 1.429v0.857h3.429v-0.857c0-0.786 0.643-1.429 1.429-1.429h0.571c0.786 0 1.429 0.643 1.429 1.429v0.857h1.143c0.625 0 1.143 0.518 1.143 1.143z"></path>
</svg>
