<!-- Generated by IcoMoon.io -->
<svg version="1.1" xmlns="http://www.w3.org/2000/svg" width="14" height="16" viewBox="0 0 14 16">
<title>file-o</title>
<path d="M13.107 3.393c0.33 0.33 0.607 0.991 0.607 1.464v10.286c0 0.473-0.384 0.857-0.857 0.857h-12c-0.473 0-0.857-0.384-0.857-0.857v-14.286c0-0.473 0.384-0.857 0.857-0.857h8c0.473 0 1.134 0.277 1.464 0.607zM9.143 1.214v3.357h3.357c-0.054-0.152-0.134-0.304-0.196-0.366l-2.795-2.795c-0.063-0.063-0.214-0.143-0.366-0.196zM12.571 14.857v-9.143h-3.714c-0.473 0-0.857-0.384-0.857-0.857v-3.714h-6.857v13.714h11.429z"></path>
</svg>
