<!-- Generated by IcoMoon.io -->
<svg version="1.1" xmlns="http://www.w3.org/2000/svg" width="14" height="16" viewBox="0 0 14 16">
<title>globe</title>
<path d="M6.857 1.143c3.786 0 6.857 3.071 6.857 6.857s-3.071 6.857-6.857 6.857-6.857-3.071-6.857-6.857 3.071-6.857 6.857-6.857zM9.304 5.795c-0.071 0.054-0.116 0.152-0.205 0.17 0.045-0.009 0.089-0.17 0.116-0.205 0.054-0.063 0.125-0.098 0.196-0.134 0.152-0.063 0.304-0.080 0.464-0.107 0.152-0.036 0.339-0.036 0.455 0.098-0.027-0.027 0.188-0.214 0.214-0.223 0.080-0.045 0.214-0.027 0.268-0.107 0.018-0.027 0.018-0.196 0.018-0.196-0.152 0.018-0.205-0.125-0.214-0.25 0 0.009-0.018 0.036-0.054 0.071 0.009-0.134-0.161-0.036-0.223-0.054-0.205-0.054-0.179-0.196-0.241-0.348-0.036-0.080-0.134-0.107-0.17-0.188-0.036-0.054-0.054-0.17-0.134-0.179-0.054-0.009-0.152 0.188-0.17 0.179-0.080-0.045-0.116 0.018-0.179 0.054-0.054 0.036-0.098 0.018-0.152 0.045 0.161-0.054-0.071-0.143-0.152-0.125 0.125-0.036 0.063-0.17-0.009-0.232h0.045c-0.018-0.080-0.268-0.152-0.348-0.205s-0.509-0.143-0.598-0.089c-0.107 0.063 0.027 0.241 0.027 0.33 0.009 0.107-0.107 0.134-0.107 0.223 0 0.152 0.286 0.125 0.214 0.33-0.045 0.125-0.214 0.152-0.286 0.25-0.071 0.089 0.009 0.25 0.080 0.313 0.071 0.054-0.125 0.143-0.152 0.161-0.152 0.071-0.268-0.152-0.304-0.286-0.027-0.098-0.036-0.214-0.143-0.268-0.054-0.018-0.223-0.045-0.259 0.009-0.054-0.134-0.241-0.188-0.366-0.232-0.179-0.063-0.33-0.063-0.518-0.036 0.063-0.009-0.018-0.286-0.17-0.241 0.045-0.089 0.027-0.188 0.045-0.277 0.018-0.071 0.054-0.143 0.107-0.205 0.018-0.036 0.214-0.241 0.152-0.25 0.152 0.018 0.321 0.027 0.446-0.098 0.080-0.080 0.116-0.214 0.196-0.304 0.116-0.134 0.259 0.036 0.384 0.045 0.179 0.009 0.17-0.188 0.071-0.277 0.116 0.009 0.018-0.205-0.045-0.232-0.080-0.027-0.384 0.054-0.223 0.116-0.036-0.018-0.25 0.429-0.375 0.205-0.036-0.045-0.054-0.232-0.134-0.241-0.071 0-0.116 0.080-0.143 0.134 0.045-0.116-0.25-0.196-0.313-0.205 0.134-0.089 0.027-0.188-0.071-0.241-0.071-0.045-0.295-0.080-0.357-0.009-0.17 0.205 0.179 0.232 0.268 0.286 0.027 0.018 0.134 0.080 0.071 0.125-0.054 0.027-0.214 0.071-0.232 0.107-0.054 0.080 0.063 0.17-0.018 0.25-0.080-0.080-0.080-0.214-0.143-0.304 0.080 0.098-0.321 0.045-0.313 0.045-0.134 0-0.348 0.089-0.446-0.045-0.018-0.036-0.018-0.241 0.036-0.196-0.080-0.063-0.134-0.125-0.188-0.161-0.295 0.098-0.571 0.223-0.839 0.366 0.036 0.009 0.063 0.009 0.107-0.009 0.071-0.027 0.134-0.071 0.205-0.107 0.089-0.036 0.277-0.143 0.375-0.063 0.009-0.018 0.036-0.036 0.045-0.045 0.063 0.071 0.125 0.143 0.179 0.223-0.071-0.036-0.188-0.018-0.268-0.009-0.063 0.018-0.17 0.036-0.196 0.107 0.027 0.045 0.063 0.116 0.045 0.161-0.116-0.080-0.205-0.214-0.366-0.232-0.071 0-0.143 0-0.196 0.009-0.857 0.473-1.58 1.161-2.098 1.982 0.036 0.036 0.071 0.063 0.107 0.071 0.089 0.027 0 0.286 0.17 0.152 0.054 0.045 0.063 0.107 0.027 0.17 0.009-0.009 0.366 0.223 0.393 0.241 0.063 0.054 0.161 0.116 0.188 0.188 0.018 0.063-0.036 0.134-0.089 0.161-0.009-0.018-0.143-0.152-0.161-0.116-0.027 0.045 0 0.286 0.098 0.277-0.143 0.009-0.080 0.563-0.116 0.67 0 0.009 0.018 0.009 0.018 0.009-0.027 0.107 0.063 0.527 0.241 0.482-0.116 0.027 0.205 0.438 0.25 0.464 0.116 0.080 0.25 0.134 0.33 0.25 0.089 0.125 0.089 0.313 0.214 0.411-0.036 0.107 0.188 0.232 0.179 0.384-0.018 0.009-0.027 0.009-0.045 0.018 0.045 0.125 0.214 0.125 0.277 0.241 0.036 0.071 0 0.241 0.116 0.205 0.018-0.196-0.116-0.393-0.214-0.554-0.054-0.089-0.107-0.17-0.152-0.259-0.045-0.080-0.054-0.179-0.089-0.268 0.036 0.009 0.232 0.080 0.214 0.107-0.071 0.179 0.286 0.491 0.384 0.607 0.027 0.027 0.232 0.295 0.125 0.295 0.116 0 0.277 0.179 0.33 0.268 0.080 0.134 0.063 0.304 0.116 0.446 0.054 0.179 0.304 0.259 0.446 0.339 0.125 0.063 0.232 0.152 0.357 0.196 0.188 0.071 0.232 0.009 0.393-0.018 0.232-0.036 0.259 0.223 0.446 0.321 0.116 0.063 0.366 0.152 0.491 0.098-0.054 0.018 0.188 0.384 0.205 0.411 0.080 0.107 0.232 0.161 0.321 0.268 0.027-0.018 0.054-0.045 0.063-0.080-0.036 0.098 0.134 0.286 0.223 0.268 0.098-0.018 0.125-0.214 0.125-0.286-0.179 0.089-0.339 0.018-0.438-0.161-0.018-0.045-0.161-0.295-0.036-0.295 0.17 0 0.054-0.134 0.036-0.259s-0.143-0.205-0.205-0.313c-0.054 0.107-0.232 0.080-0.286-0.009 0 0.027-0.027 0.071-0.027 0.107-0.045 0-0.089 0.009-0.134-0.009 0.018-0.107 0.027-0.241 0.054-0.357 0.045-0.161 0.339-0.473-0.045-0.455-0.134 0.009-0.188 0.063-0.232 0.179-0.045 0.107-0.027 0.205-0.152 0.259-0.080 0.036-0.348 0.018-0.429-0.027-0.17-0.098-0.286-0.411-0.286-0.589-0.009-0.241 0.116-0.455 0-0.679 0.054-0.045 0.107-0.134 0.17-0.179 0.054-0.036 0.116 0.027 0.143-0.080-0.027-0.018-0.063-0.054-0.071-0.054 0.134 0.063 0.384-0.089 0.5 0 0.071 0.054 0.152 0.071 0.196-0.018 0.009-0.027-0.063-0.134-0.027-0.205 0.027 0.152 0.125 0.179 0.259 0.080 0.054 0.054 0.196 0.036 0.295 0.089 0.098 0.063 0.116 0.161 0.232 0.027 0.071 0.107 0.080 0.107 0.107 0.214 0.027 0.098 0.080 0.348 0.17 0.393 0.188 0.116 0.143-0.196 0.125-0.304-0.009-0.009-0.009-0.304-0.018-0.304-0.286-0.063-0.179-0.286-0.018-0.438 0.027-0.018 0.232-0.089 0.321-0.161 0.080-0.071 0.179-0.196 0.134-0.313 0.045 0 0.080-0.036 0.098-0.080-0.027-0.009-0.134-0.098-0.152-0.089 0.063-0.036 0.054-0.089 0.018-0.143 0.089-0.054 0.045-0.152 0.134-0.188 0.098 0.134 0.295-0.018 0.196-0.125 0.089-0.125 0.295-0.063 0.348-0.179 0.134 0.036 0.036-0.134 0.107-0.232 0.063-0.080 0.17-0.080 0.25-0.125 0 0.009 0.223-0.125 0.152-0.134 0.152 0.018 0.455-0.143 0.223-0.277 0.036-0.080-0.080-0.116-0.161-0.134 0.063-0.018 0.143 0.018 0.196-0.018 0.116-0.080 0.036-0.116-0.063-0.143-0.125-0.036-0.286 0.045-0.384 0.107zM7.848 13.625c1.223-0.214 2.313-0.821 3.134-1.688-0.054-0.054-0.152-0.036-0.223-0.071-0.071-0.027-0.125-0.054-0.214-0.071 0.018-0.179-0.179-0.241-0.304-0.33-0.116-0.089-0.188-0.188-0.357-0.152-0.018 0.009-0.196 0.071-0.161 0.107-0.116-0.098-0.17-0.152-0.321-0.196-0.143-0.045-0.241-0.223-0.384-0.063-0.071 0.071-0.036 0.179-0.071 0.25-0.116-0.098 0.107-0.214 0.018-0.321-0.107-0.125-0.295 0.080-0.384 0.134-0.054 0.045-0.116 0.063-0.152 0.116-0.045 0.063-0.063 0.143-0.098 0.205-0.027-0.071-0.179-0.054-0.188-0.107 0.036 0.214 0.036 0.438 0.080 0.652 0.027 0.125 0 0.33-0.107 0.429s-0.241 0.205-0.259 0.357c-0.018 0.107 0.009 0.205 0.107 0.232 0.009 0.134-0.143 0.232-0.134 0.375 0 0.009 0.009 0.098 0.018 0.143z"></path>
</svg>
