<!-- Generated by IcoMoon.io -->
<svg version="1.1" xmlns="http://www.w3.org/2000/svg" width="14" height="16" viewBox="0 0 14 16">
<title>pinterest</title>
<path fill="#fff" d="M13.714 8c0 3.786-3.071 6.857-6.857 6.857-0.679 0-1.321-0.098-1.946-0.286 0.259-0.411 0.554-0.938 0.696-1.464 0 0 0.080-0.304 0.482-1.884 0.232 0.455 0.929 0.857 1.67 0.857 2.205 0 3.705-2.009 3.705-4.705 0-2.027-1.723-3.929-4.348-3.929-3.25 0-4.893 2.339-4.893 4.286 0 1.179 0.446 2.232 1.402 2.625 0.152 0.063 0.295 0 0.339-0.179 0.036-0.116 0.107-0.42 0.143-0.545 0.045-0.179 0.027-0.232-0.098-0.384-0.277-0.33-0.455-0.75-0.455-1.348 0-1.732 1.295-3.286 3.375-3.286 1.839 0 2.857 1.125 2.857 2.634 0 1.973-0.875 3.643-2.179 3.643-0.714 0-1.25-0.589-1.080-1.321 0.205-0.866 0.607-1.804 0.607-2.429 0-0.563-0.304-1.036-0.929-1.036-0.732 0-1.321 0.759-1.321 1.777 0 0 0 0.652 0.223 1.089-0.75 3.179-0.884 3.732-0.884 3.732-0.125 0.518-0.134 1.098-0.116 1.58-2.42-1.063-4.107-3.473-4.107-6.286 0-3.786 3.071-6.857 6.857-6.857s6.857 3.071 6.857 6.857z"></path>
</svg>
