<!-- Generated by IcoMoon.io -->
<svg version="1.1" xmlns="http://www.w3.org/2000/svg" width="15" height="16" viewBox="0 0 15 16">
<title>search</title>
<path d="M10.286 7.429c0-2.205-1.795-4-4-4s-4 1.795-4 4 1.795 4 4 4 4-1.795 4-4zM14.857 14.857c0 0.625-0.518 1.143-1.143 1.143-0.304 0-0.598-0.125-0.804-0.339l-3.063-3.054c-1.045 0.723-2.295 1.107-3.563 1.107-3.473 0-6.286-2.813-6.286-6.286s2.813-6.286 6.286-6.286 6.286 2.813 6.286 6.286c0 1.268-0.384 2.518-1.107 3.563l3.063 3.063c0.205 0.205 0.33 0.5 0.33 0.804z"></path>
</svg>
